<!-- Generated by IcoMoon.io -->
<svg version="1.1" xmlns="http://www.w3.org/2000/svg" width="32" height="32" viewBox="0 0 32 32">
<path opacity="0.7" stroke="#000" fill="#000" stroke-width="0.5587" stroke-miterlimit="4" stroke-linecap="butt" stroke-linejoin="miter" d="M0.279 16c0 8.682 7.038 15.721 15.721 15.721s15.721-7.038 15.721-15.721c0-8.682-7.038-15.721-15.721-15.721s-15.721 7.038-15.721 15.721z"></path>
<path d="M9.841 16.514c-0.284-0.284-0.284-0.745 0-1.028l4.628-4.628c0.284-0.284 0.745-0.284 1.029 0s0.284 0.745 0 1.028l-4.114 4.114 4.114 4.114c0.284 0.284 0.284 0.744 0 1.029s-0.745 0.284-1.029 0l-4.628-4.628zM22.545 16.727h-12.19v-1.455h12.19v1.455z"></path>
</svg>
